<?xml version="1.0" encoding="UTF-8"?>
<svg id="Layer_2" data-name="Layer 2" xmlns="http://www.w3.org/2000/svg" viewBox="0 0 146.24 129.82">
  <defs>
    <style>
      .cls-1 {
        fill: #fff;
        stroke-width: 0px;
      }
    </style>
  </defs>
  <g id="Layer_1-2" data-name="Layer 1">
    <path class="cls-1" d="M144.54,111.01l-21.31-36.86,4.41-15.95c.41-1.35.42-2.78,0-4.13-.41-1.35-1.2-2.54-2.29-3.44-1.09-.89-2.41-1.44-3.82-1.58-1.41-.14-2.81.14-4.06.81-.83.44-1.56,1.04-2.16,1.76-.6.73-1.04,1.55-1.3,2.42l-.88,2.63L83.97,6.26c-2.27-3.92-6.32-6.26-10.85-6.26s-8.58,2.34-10.85,6.26L1.7,111.01c-2.27,3.92-2.27,8.61,0,12.54,2.27,3.93,6.32,6.27,10.86,6.27h121.13c4.53,0,8.59-2.34,10.86-6.27,2.27-3.93,2.27-8.61,0-12.54ZM115.85,54.64c.2-.65.52-1.25.96-1.78.44-.53.97-.96,1.57-1.29.91-.49,1.94-.69,2.96-.59,1.03.1,1.99.5,2.78,1.15.79.65,1.37,1.52,1.67,2.5.3.98.29,2.02-.02,3.03l-4.41,15.96-16.77-4.68c-.66-.2-1.26-.52-1.79-.95s-.96-.96-1.28-1.56c-.32-.6-.52-1.25-.58-1.93-.07-.68,0-1.36.2-2.01.2-.66.53-1.26.96-1.79.44-.53.97-.96,1.57-1.29.61-.32,1.26-.52,1.94-.59.18-.02.35-.03.52-.03.51,0,1.01.08,1.5.22l6.12,1.8,2.08-6.18ZM142.03,122.1c-1.74,3.02-4.86,4.82-8.34,4.82H12.55c-3.48,0-6.6-1.8-8.34-4.81h0c-1.74-3.03-1.74-6.63,0-9.65L64.78,7.71c1.74-3.01,4.86-4.81,8.34-4.81s6.6,1.8,8.34,4.81l28.98,50.11-2.23-.66c-.9-.28-1.84-.36-2.77-.27-.93.09-1.83.36-2.66.81-.83.44-1.56,1.04-2.15,1.76-.6.72-1.04,1.55-1.32,2.45-.27.9-.37,1.83-.28,2.77.09.94.36,1.83.8,2.66.44.83,1.04,1.55,1.76,2.14.72.59,1.55,1.03,2.47,1.31l16.55,4.61,21.42,37.05c1.75,3.01,1.75,6.62,0,9.64Z"/>
  </g>
</svg>